<?xml version="1.0" encoding="utf-8"?>
<!-- Generator: Adobe Illustrator 28.1.0, SVG Export Plug-In . SVG Version: 6.00 Build 0)  -->
<svg version="1.1" id="Layer_1" xmlns="http://www.w3.org/2000/svg" xmlns:xlink="http://www.w3.org/1999/xlink" x="0px" y="0px"
	 viewBox="0 0 120 120" style="enable-background:new 0 0 120 120;" xml:space="preserve">
<style type="text/css">
	.st0{fill-rule:evenodd;clip-rule:evenodd;fill:#CDFA8A;}
	.st1{fill-rule:evenodd;clip-rule:evenodd;fill:#002E25;}
	.st2{fill:none;stroke:#0E2E28;stroke-width:2;stroke-linejoin:bevel;}
	.st3{fill:none;stroke:#0E2E28;stroke-width:2;stroke-linejoin:bevel;stroke-dasharray:2;}
</style>
<circle id="Oval" class="st0" cx="98" cy="22" r="16"/>
<polygon class="st1" points="97,32 99,32 99,23 97,25 "/>
<g>
	<polygon class="st1" points="101,21 99,23 108,23 108,21 	"/>
	<polygon class="st1" points="99,12 97,12 97,21 99,19 	"/>
	<polygon class="st1" points="88,23 95,23 97,21 88,21 	"/>
</g>
<path id="Oval_00000165945746382157141500000005445899722386534327_" class="st2" d="M60,66c21,0,20-21,20-32s-9-20-20-20
	s-20,9-20,20S39,66,60,66z"/>
<path id="Oval_00000083082443401487862280000014440401683579291275_" class="st3" d="M60.2,65.8c18.1,0,17.2-18.1,17.2-27.6
	S69.7,21,60.2,21S43,28.7,43,38.2S42.1,65.8,60.2,65.8z"/>
<path id="Combined-Shape" class="st2" d="M40,40C40,40,40,40,40,40c0.1,4.3,0.5,9.2,1.9,13.5C41.3,53.8,40.7,54,40,54
	c-2.8,0-5-3.1-5-7S37.2,40,40,40z M80,40c2.8,0,5,3.1,5,7s-2.2,7-5,7c-0.7,0-1.3-0.2-1.9-0.5C79.5,49.2,79.9,44.3,80,40L80,40z"/>
<path id="Oval_00000160898065044348516400000016464836298093381001_" class="st3" d="M94,94.3C94,78.7,78.8,66,60,66
	S26,78.7,26,94.3S94,109.9,94,94.3z"/>
<path id="Oval_00000003818023159424707440000015738725695926260611_" class="st2" d="M90,91.5C90,77.4,76.6,66,60,66
	S30,77.4,30,91.5S90,105.5,90,91.5z"/>
</svg>
