<svg version="1.2" xmlns="http://www.w3.org/2000/svg" viewBox="0 0 120 120" width="120" height="120"><defs><linearGradient id="P" gradientUnits="userSpaceOnUse"/><linearGradient id="g1" x2="1" href="#P" gradientTransform="matrix(90.522,0,0,70.2,15,60.073)"><stop stop-color="#dc6b2f"/><stop offset=".39" stop-color="#c45433"/><stop offset="1" stop-color="#a4343a"/></linearGradient><linearGradient id="g2" x2="1" href="#P" gradientTransform="matrix(88.69,0,0,60.158,16.836,56.305)"><stop stop-color="#dc6b2f"/><stop offset=".39" stop-color="#c45433"/><stop offset="1" stop-color="#a4343a"/></linearGradient></defs><style>.a{fill:url(#g1)}.b{fill:url(#g2)}.c{fill:#fff}</style><path fill-rule="evenodd" class="a" d="m105.5 25v45.6l-3.1 3.1c-0.5 0.3-1.2 0.4-2.1 0.4-2.7 0-3.5-1.1-3.5-4v-17.3h6.9v-3.2h-6.7c0-3.6 0.5-7.8 0.5-7.8l-4.4 1c0 0-0.5 4.2-0.5 6.7h-2.9l-2 3.2h4.9v18.4c0 2.8 0.7 4.5 2.6 5.4 1.1 0.5 2.2 0.7 3.5 0.7 0.1 0 0.2 0 0.2 0l-17.7 18h-66.2v-45.7l24.3-24.5zm-64.8 31c0-1.1-0.2-2.2-0.7-3.1-1-2.4-3.7-3.9-6.5-3.9-2.8 0-5.6 1.3-8.4 4.1 0-2.2-1-4.2-1-4.2l-4.2 0.9c0 0 1.2 2.1 1.2 5.9v20.6h4.1v-19.9c1.9-2.1 5.2-3.8 7.4-3.8 1.2 0 2.4 0.4 2.9 1.1 0.7 0.9 1 1.7 1 4.5v18.1h4.2zm24 7.1c-0.1-6.4-0.7-8.9-3-11.3-1.9-1.8-4.4-2.9-7.3-2.9-3.2 0-5.8 1.2-8 3.8-2.3 2.6-3.2 5.5-3.2 10 0 8.9 4.5 14.3 11.9 14.3 3.4 0 6.6-1.2 9-3.4l-1.6-2.7c-1.9 1.7-3.9 2.5-6.6 2.5-2.6 0-5.1-0.9-6.6-3.2-0.9-1.4-1.3-3.4-1.3-5.9v-0.7h16.7zm14.5-1.6l7.9-11.9h-4.9l-5.1 8.9-5.4-8.9h-5.1l8.3 11.9-10 14.9h4.9l7.3-11.4 7.3 11.4h5.1z"/><path class="b" d="m54.2 52.1c-3.8 0-5.9 2.8-6.1 8.3h12.2c0-2.9-0.4-4.6-1.2-5.9-0.9-1.4-2.8-2.4-4.9-2.4z"/><path class="c" d="m33.6 49c-2.9 0-5.7 1.3-8.5 4.1 0-2.2-0.9-4.2-0.9-4.2l-4.2 0.9c0 0 1.1 2.1 1.1 5.9v20.6h4.1v-19.9c1.9-2 5.2-3.8 7.4-3.8 1.2 0 2.4 0.4 3 1.1 0.7 0.9 0.9 1.7 0.9 4.5v18.1h4.2v-20.3q0-1.6-0.6-3.1c-1.1-2.4-3.6-3.9-6.5-3.9z"/><path fill-rule="evenodd" class="c" d="m61.8 51.8c2.3 2.3 2.9 4.9 3 11.3v0.5h-16.7v0.6c0 2.6 0.3 4.5 1.2 5.9 1.5 2.3 4.1 3.3 6.7 3.3 2.5 0 4.6-0.8 6.5-2.5l1.6 2.7c-2.3 2.1-5.6 3.3-9 3.3-7.4 0-11.9-5.3-11.9-14.2 0-4.5 1-7.4 3.2-10.1 2.2-2.5 4.8-3.7 8-3.7 3 0 5.5 1 7.4 2.9zm-1.5 8.7c0-2.9-0.4-4.7-1.2-6-0.9-1.4-2.8-2.3-4.9-2.3-3.8 0-5.9 2.8-6.1 8.3z"/><path class="c" d="m87.2 49.5h-4.9l-5.2 9-5.3-9h-5.1l8.2 12-9.9 14.8h4.9l7.2-11.4 7.3 11.4h5.1l-10.3-14.8z"/><path class="c" d="m96.8 70v-17.3h6.9v-3.2h-6.7c0-3.5 0.5-7.7 0.5-7.7l-4.4 0.9c0 0-0.4 4.2-0.4 6.8h-2.9l-2.1 3.2h5v18.4c0 2.7 0.7 4.4 2.6 5.3 1 0.5 2.1 0.8 3.5 0.8 0 0 0.1 0 0.2 0l3.5-3.6c-0.6 0.3-1.2 0.4-2.2 0.4-2.7 0-3.5-1-3.5-4z"/></svg>