<?xml version="1.0" encoding="utf-8"?>
<!-- Generator: Adobe Illustrator 27.0.0, SVG Export Plug-In . SVG Version: 6.00 Build 0)  -->
<svg version="1.1" id="Layer_1" xmlns="http://www.w3.org/2000/svg" xmlns:xlink="http://www.w3.org/1999/xlink" x="0px" y="0px"
	 viewBox="0 0 120 120" style="enable-background:new 0 0 120 120;" xml:space="preserve">
<style type="text/css">
	.st0{fill:none;stroke:#0E2E28;stroke-width:2;stroke-linejoin:bevel;}
	.st1{fill-rule:evenodd;clip-rule:evenodd;fill:#CDFA8A;}
	.st2{fill-rule:evenodd;clip-rule:evenodd;fill:#0E2E28;}
</style>
<path id="Rectangle" class="st0" d="M32,14h38l0,0l24,24v62c0,3.3-2.7,6-6,6H32c-3.3,0-6-2.7-6-6V20C26,16.7,28.7,14,32,14z"/>
<circle id="Oval" class="st1" cx="60" cy="60" r="20"/>
<path id="Rectangle_00000104675975350151046280000016160517939892873403_" class="st0" d="M70,14l24,24H76c-3.3,0-6-2.7-6-6V14
	L70,14z"/>
<g>
	<polygon class="st2" points="61,61 70,61 70,59 63,59 	"/>
	<polygon class="st2" points="59,70 61,70 61,61 59,63 	"/>
</g>
<g>
	<polygon class="st2" points="61,50 59,50 59,59 61,57 	"/>
	<polygon class="st2" points="59,59 50,59 50,61 57,61 	"/>
</g>
</svg>
