<?xml version="1.0" encoding="utf-8"?>
<!-- Generator: Adobe Illustrator 27.0.0, SVG Export Plug-In . SVG Version: 6.00 Build 0)  -->
<svg version="1.1" id="Layer_1" xmlns="http://www.w3.org/2000/svg" xmlns:xlink="http://www.w3.org/1999/xlink" x="0px" y="0px"
	 viewBox="0 0 120 120" style="enable-background:new 0 0 120 120;" xml:space="preserve">
<style type="text/css">
	.st0{fill:#FFFFFF;}
	.st1{fill:#1A73E8;}
	.st2{fill:#EA4335;}
	.st3{fill:#34A853;}
	.st4{fill:#4285F4;}
	.st5{fill:#188038;}
	.st6{fill:#FBBC04;}
	.st7{fill:#1967D2;}
</style>
<polygon id="Path" class="st0" points="76.8,43.2 61.7,41.5 43.2,43.2 41.5,60 43.2,76.8 60,78.9 76.8,76.8 78.5,59.6 "/>
<path id="Path_00000163057820756686471320000016574816103339075728_" class="st1" d="M50.1,69.3c-1.3-0.9-2.1-2.1-2.6-3.7l2.9-1.2
	c0.3,1,0.7,1.8,1.4,2.3c0.7,0.6,1.5,0.8,2.4,0.8c1,0,1.8-0.3,2.5-0.9c0.7-0.6,1-1.3,1-2.2c0-0.9-0.4-1.7-1.1-2.2
	c-0.7-0.6-1.6-0.9-2.7-0.9h-1.7v-2.9h1.5c0.9,0,1.7-0.3,2.4-0.8s1-1.2,1-2.1c0-0.8-0.3-1.4-0.9-1.9S54.8,53,54,53
	c-0.9,0-1.5,0.2-2,0.7c-0.5,0.5-0.9,1-1.1,1.7l-2.9-1.2c0.4-1.1,1.1-2,2.1-2.9c1-0.8,2.3-1.2,3.9-1.2c1.2,0,2.2,0.2,3.2,0.7
	c0.9,0.5,1.7,1.1,2.2,1.9c0.5,0.8,0.8,1.7,0.8,2.7c0,1-0.2,1.9-0.7,2.6c-0.5,0.7-1.1,1.3-1.8,1.6v0.2c1,0.4,1.7,1,2.3,1.8
	c0.6,0.8,0.9,1.8,0.9,2.9c0,1.1-0.3,2.2-0.9,3.1c-0.6,0.9-1.4,1.6-2.4,2.1c-1,0.5-2.2,0.8-3.4,0.8C52.7,70.6,51.3,70.1,50.1,69.3z"
	/>
<polygon id="Path_00000044177755452033898630000008080765531764422534_" class="st1" points="68,54.8 64.8,57.1 63.2,54.7 69,50.5 
	71.2,50.5 71.2,70.1 68,70.1 "/>
<polygon id="Path_00000027605466211662114360000012076968600893482386_" class="st2" points="76.8,92 92,76.8 84.4,73.5 76.8,76.8 
	73.5,84.4 "/>
<polygon id="Path_00000146484920565106278550000013084664447687815597_" class="st3" points="39.8,84.4 43.2,92 76.8,92 76.8,76.8 
	43.2,76.8 "/>
<path id="Path_00000076576603578617684240000002995048563891003523_" class="st4" d="M33.1,28c-2.8,0-5.1,2.3-5.1,5.1v43.8l7.6,3.4
	l7.6-3.4V43.2h33.7l3.4-7.6L76.8,28H33.1z"/>
<path id="Path_00000018917018803316425750000000212304544347206831_" class="st5" d="M28,76.8v10.1c0,2.8,2.3,5.1,5.1,5.1h10.1V76.8
	H28z"/>
<polygon id="Path_00000145056641493836465220000013669555953434075054_" class="st6" points="76.8,43.2 76.8,76.8 92,76.8 92,43.2 
	84.4,39.8 "/>
<path id="Path_00000109719628105063585800000001988567363266723490_" class="st7" d="M92,43.2V33.1c0-2.8-2.3-5.1-5.1-5.1H76.8v15.2
	H92z"/>
</svg>
