<?xml version="1.0" encoding="utf-8"?>
<!-- Generator: Adobe Illustrator 27.0.0, SVG Export Plug-In . SVG Version: 6.00 Build 0)  -->
<svg version="1.1" id="Layer_1" xmlns="http://www.w3.org/2000/svg" xmlns:xlink="http://www.w3.org/1999/xlink" x="0px" y="0px"
	 viewBox="0 0 120 120" style="enable-background:new 0 0 120 120;" xml:space="preserve">
<style type="text/css">
	.st0{fill:#FF4A00;}
</style>
<path id="Shape" class="st0" d="M60,24c2,0,4,0.2,6,0.5l0,0v21l14.9-14.9c1.6,1.2,3.2,2.5,4.6,3.9c1.4,1.4,2.7,3,3.9,4.6l0,0
	L74.5,54h21c0.3,1.9,0.5,3.9,0.5,6l0,0v0c0,2-0.2,4-0.5,6l0,0h-21l14.9,14.9c-1.2,1.6-2.5,3.2-3.9,4.6l0,0h0c-1.4,1.4-3,2.7-4.6,3.9
	l0,0L66,74.5v21c-1.9,0.3-3.9,0.5-6,0.5l0,0H60c-2,0-4-0.2-6-0.5l0,0v-21L39.1,89.3c-3.3-2.3-6.2-5.2-8.5-8.5l0,0L45.5,66h-21
	c-0.3-1.9-0.5-4-0.5-6l0,0v-0.1c0-0.5,0-1.2,0.1-1.8l0-0.2c0.1-1.9,0.4-3.9,0.4-3.9l0,0h21L30.7,39.1c1.2-1.6,2.5-3.2,3.9-4.6l0,0
	l0,0c1.4-1.4,3-2.7,4.6-3.9l0,0L54,45.5v-21C55.9,24.2,57.9,24,60,24L60,24L60,24z M60,51L60,51c-2.7,0-5.3,0.5-7.6,1.4
	C51.5,54.7,51,57.3,51,60v0c0,2.7,0.5,5.2,1.4,7.6c2.4,0.9,4.9,1.4,7.6,1.4h0c2.7,0,5.2-0.5,7.6-1.4c0.9-2.4,1.4-4.9,1.4-7.6v0
	c0-2.7-0.5-5.2-1.4-7.6C65.3,51.5,62.7,51,60,51z"/>
</svg>
