<?xml version="1.0" encoding="utf-8"?>
<!-- Generator: Adobe Illustrator 27.0.0, SVG Export Plug-In . SVG Version: 6.00 Build 0)  -->
<svg version="1.1" id="Layer_1" xmlns="http://www.w3.org/2000/svg" xmlns:xlink="http://www.w3.org/1999/xlink" x="0px" y="0px"
	 viewBox="0 0 54 54" style="enable-background:new 0 0 54 54;" xml:space="preserve">
<style type="text/css">
	.st0{fill-rule:evenodd;clip-rule:evenodd;fill:#CDFA8A;}
	.st1{opacity:0.15;fill-rule:evenodd;clip-rule:evenodd;fill:#0E2E28;enable-background:new    ;}
	.st2{fill-rule:evenodd;clip-rule:evenodd;fill:#0E2E28;stroke:#0E2E28;stroke-width:2;}
	.st3{fill-rule:evenodd;clip-rule:evenodd;fill:#CDFA8A;stroke:#0E2E28;stroke-width:2;}
	.st4{opacity:0.2;fill-rule:evenodd;clip-rule:evenodd;fill:#0E2E28;stroke:#0E2E28;stroke-width:2;enable-background:new    ;}
</style>
<path id="path-1_00000016048964217032057310000007632012351535717255_" class="st0" d="M27,53c21.2,0,27-11.9,27-26.5S48.2,0,27,0
	S0,11.9,0,26.5S5.8,53,27,53z"/>
<path class="st1" d="M27,53C6,53,0.1,41.2,0,26.5c0,0.2,0,0.3,0,0.5c0,14.9,5.8,27,27,27s27-12.1,27-27c0-0.2,0-0.3,0-0.5
	C53.9,41.2,48,53,27,53z"/>
<path id="Oval_00000041264338689547742700000016440918656153837977_" class="st2" d="M33,8c4.7,0,7.8,1.2,9.8,3.2
	c2.4,2.4,3.2,5.9,3.2,9.8s-0.8,7.4-3.2,9.8c-2,2-5.2,3.2-9.8,3.2s-7.8-1.2-9.8-3.2C20.8,28.4,20,24.9,20,21s0.8-7.4,3.2-9.8
	C25.2,9.2,28.3,8,33,8z"/>
<path id="Oval_00000070096550871067434590000013411739694804426376_" class="st3" d="M21,20c4.7,0,7.8,1.2,9.8,3.2
	c2.4,2.4,3.2,5.9,3.2,9.8s-0.8,7.4-3.2,9.8c-2,2-5.2,3.2-9.8,3.2s-7.8-1.2-9.8-3.2C8.8,40.4,8,36.9,8,33s0.8-7.4,3.2-9.8
	C13.2,21.2,16.3,20,21,20z"/>
<path id="Oval_00000086653562368631763680000018445984751804716695_" class="st4" d="M33,8c4.7,0,7.8,1.2,9.8,3.2
	c2.4,2.4,3.2,5.9,3.2,9.8s-0.8,7.4-3.2,9.8c-2,2-5.2,3.2-9.8,3.2s-7.8-1.2-9.8-3.2C20.8,28.4,20,24.9,20,21s0.8-7.4,3.2-9.8
	C25.2,9.2,28.3,8,33,8z"/>
</svg>
